<?xml version="1.0" encoding="UTF-8"?><svg id="Layer_2" xmlns="http://www.w3.org/2000/svg" viewBox="0 0 664.48 769.31"><defs><style>.cls-1{fill:#a877ab;stroke:#a877ab;}.cls-1,.cls-2,.cls-3,.cls-4,.cls-5,.cls-6{stroke-miterlimit:10;}.cls-1,.cls-3,.cls-4,.cls-5,.cls-6{stroke-width:3px;}.cls-2{fill:#fff;stroke:#fff;stroke-width:4px;}.cls-3{fill:#cc4e93;stroke:#cc4e93;}.cls-4{fill:#839fc2;stroke:#839fc2;}.cls-5{fill:#f0257c;stroke:#f0257c;}.cls-6{fill:#5fc8d9;stroke:#5fc8d9;}</style></defs><g id="Layer_9"><path class="cls-5" d="M229.56,287.86h76.21c.19,0,19.38.12,38.27,9.25,25.17,12.17,37.94,33.75,37.94,64.16s-12.03,51.27-35.75,63.66c-17.79,9.29-35.86,9.75-36.01,9.75l-80.67-.61v-146.21ZM441.8,530.88l133.16,236.39,2.33-1.31-133.14-236.36c24.75-13.51,45.07-30.42,60.56-50.48,24.5-31.72,36.92-71.37,36.92-117.85s-12.42-85.87-36.92-117.49c-19.59-25.29-46.89-45.59-81.15-60.32-58.21-25.05-117.2-25.34-117.79-25.34h-177.49v-72.24l-63.97-22.96L1.5,85.82v74.96h64.68v605.98h2.68V160.79h236.92c.58,0,59.09.3,116.8,25.15,33.81,14.56,60.74,34.58,80.04,59.51,24.11,31.14,36.34,70.11,36.34,115.82s-12.23,84.94-36.34,116.18c-19.3,25-46.23,45.09-80.04,59.69-57.71,24.93-116.22,25.23-116.79,25.23l-76.22-.6v-18.61l76.95.6c.52,0,52.78-.32,104.34-22.84,30.35-13.26,54.54-31.49,71.9-54.2,21.71-28.4,32.71-63.88,32.71-105.45s-11.05-76.91-32.83-105.25c-17.42-22.66-41.7-40.84-72.15-54.04-51.75-22.43-104.19-22.69-104.71-22.69H92.97v587.48h2.68V181.97h210.13c.52,0,52.48.27,103.72,22.5,30.01,13.02,53.92,30.93,71.05,53.22,21.4,27.85,32.25,62.7,32.25,103.58s-10.81,75.87-32.14,103.78c-17.07,22.34-40.89,40.3-70.8,53.38-51.06,22.32-102.83,22.65-103.33,22.65l-76.96-.6v-18.61l77.7.6c.45,0,45.98-.34,90.9-20.27,26.44-11.73,47.52-27.84,62.65-47.9,18.91-25.08,28.51-56.38,28.51-93.04s-9.67-67.96-28.74-93c-15.25-20.02-36.5-36.09-63.16-47.76-45.28-19.82-91.18-20.05-91.64-20.05H119.75v566.3h2.68V203.15h183.35c.45,0,45.86.24,90.64,19.85,26.22,11.48,47.1,27.27,62.06,46.93,18.69,24.55,28.17,55.29,28.17,91.34s-9.4,66.8-27.94,91.39c-14.84,19.69-35.55,35.52-61.55,47.07-44.41,19.72-89.44,20.07-89.88,20.07l-77.7-.6v-18.61l78.44.6c.39,0,39.18-.37,77.45-17.7,35.44-16.05,77.69-50.28,77.69-122.23,0-31.84-8.29-59-24.65-80.75-13.08-17.39-31.3-31.34-54.16-41.47-38.82-17.2-78.17-17.4-78.56-17.4h-159.24v545.12h2.68V224.32h156.57c.39,0,39.17.2,77.48,17.17,22.44,9.94,40.31,23.61,53.11,40.63,16,21.27,24.11,47.89,24.11,79.14s-7.99,57.72-23.74,79c-12.61,17.03-30.21,30.74-52.3,40.76-37.75,17.12-76.05,17.49-76.42,17.5l-78.45-.6v-18.61l79.19.61c.32,0,32.38-.4,64.01-15.13,29.3-13.65,64.23-42.69,64.23-103.52s-35.74-90.17-65.72-103.68c-32.36-14.59-65.16-14.76-65.49-14.76h-132.46v523.94h2.68V245.5h129.78c.32,0,32.55.17,64.39,14.52,42.57,19.19,64.15,53.26,64.15,101.25s-21.06,81.67-62.61,101.05c-31.1,14.51-62.66,14.91-62.95,14.92l-79.19-.61v-18.61l79.93.61c.25,0,25.59-.43,50.57-12.57,23.15-11.25,50.76-35.09,50.76-84.8s-28.62-74.04-52.63-85.15c-25.9-11.98-52.16-12.11-52.42-12.11h-105.67v502.76h2.68v-500.09h102.99c.26,0,26,.15,51.37,11.9,33.84,15.68,51,43.5,51,82.68s-16.54,66.47-49.17,82.35c-24.45,11.9-49.26,12.33-49.49,12.34l-79.93-.61v-18.61l80.68.61c.76-.01,18.8-.46,37.14-10.01,17-8.85,37.27-27.5,37.27-66.08s-21.5-57.92-39.53-66.61c-19.44-9.37-38.55-9.47-39.36-9.47h-78.89v481.59h2.68v-202.33l61.74.48,104.24,202.3,2.38-1.23-103.59-201.05,11.45.09c.17,0,5.06-.02,13.32-.64l106.35,202.83,2.37-1.24-105.82-201.82c6.41-.54,14.45-1.4,23.64-2.81l109.71,205.87,2.36-1.26-109.28-205.05c7.05-1.13,14.72-2.58,22.79-4.43l114.03,210.75,2.35-1.27-113.68-210.1c7.07-1.68,14.42-3.66,21.92-6.01l119.31,217.39,2.35-1.29-119.06-216.93c6.91-2.23,13.93-4.77,20.97-7.67l125.65,225.89,2.34-1.3-125.5-225.63c.56-.24,1.12-.47,1.67-.71,6.32-2.73,12.39-5.65,18.23-8.75ZM4.18,87.7l60.15-21.93,61.29,21.94v70.41H4.18v-70.41Z"/><path class="cls-5" d="M92.88,102.69v29.14h-55.87v-28.53l27.96-10.34,27.92,9.73ZM34.33,101.44v33.07h61.23v-33.72l-30.62-10.67-30.61,11.32Z"/><path class="cls-3" d="M247.79,274.8h76.21c.19,0,19.38.12,38.27,9.25,25.17,12.17,37.94,33.75,37.94,64.16s-12.03,51.27-35.75,63.66c-17.79,9.29-35.86,9.75-36.01,9.75l-80.67-.61v-146.21ZM460.03,517.82l133.16,236.39,2.33-1.31-133.14-236.36c24.75-13.51,45.07-30.42,60.56-50.48,24.5-31.72,36.92-71.37,36.92-117.85s-12.42-85.87-36.92-117.49c-19.59-25.29-46.89-45.59-81.15-60.32-58.21-25.05-117.2-25.34-117.79-25.34h-177.49v-72.24l-63.97-22.96-62.82,22.9v74.96h64.68v605.98h2.68V147.73h236.92c.58,0,59.09.3,116.8,25.15,33.81,14.56,60.74,34.58,80.04,59.51,24.11,31.14,36.34,70.11,36.34,115.82s-12.23,84.94-36.34,116.18c-19.3,25-46.23,45.09-80.04,59.69-57.71,24.93-116.22,25.23-116.79,25.23l-76.22-.6v-18.61l76.95.6c.52,0,52.78-.32,104.34-22.84,30.35-13.26,54.54-31.49,71.9-54.2,21.71-28.4,32.71-63.88,32.71-105.45s-11.05-76.91-32.83-105.25c-17.42-22.66-41.7-40.84-72.15-54.04-51.75-22.43-104.19-22.69-104.71-22.69H111.19v587.48h2.68V168.91h210.13c.52,0,52.48.27,103.72,22.5,30.01,13.02,53.92,30.93,71.05,53.22,21.4,27.85,32.25,62.7,32.25,103.58s-10.81,75.87-32.14,103.78c-17.07,22.34-40.89,40.3-70.8,53.38-51.06,22.32-102.83,22.65-103.33,22.65l-76.96-.6v-18.61l77.7.6c.45,0,45.98-.34,90.9-20.27,26.44-11.73,47.52-27.84,62.65-47.9,18.91-25.08,28.51-56.38,28.51-93.04s-9.67-67.96-28.74-93c-15.25-20.02-36.5-36.09-63.16-47.76-45.28-19.82-91.18-20.05-91.64-20.05h-186.03v566.3h2.68V190.09h183.35c.45,0,45.86.24,90.64,19.85,26.22,11.48,47.1,27.27,62.06,46.93,18.69,24.55,28.17,55.29,28.17,91.34s-9.4,66.8-27.94,91.39c-14.84,19.69-35.55,35.52-61.55,47.07-44.41,19.72-89.44,20.07-89.88,20.07l-77.7-.6v-18.61l78.44.6c.39,0,39.18-.37,77.45-17.7,35.44-16.05,77.69-50.28,77.69-122.23,0-31.84-8.29-59-24.65-80.75-13.08-17.39-31.3-31.34-54.16-41.47-38.82-17.2-78.17-17.4-78.56-17.4h-159.24v545.12h2.68V211.27h156.57c.39,0,39.17.2,77.48,17.17,22.44,9.94,40.31,23.61,53.11,40.63,16,21.27,24.11,47.89,24.11,79.14s-7.99,57.72-23.74,79c-12.61,17.03-30.21,30.74-52.3,40.76-37.75,17.12-76.05,17.49-76.42,17.5l-78.45-.6v-18.61l79.19.61c.32,0,32.38-.4,64.01-15.13,29.3-13.65,64.23-42.69,64.23-103.52s-35.74-90.17-65.72-103.68c-32.36-14.59-65.16-14.76-65.49-14.76h-132.46v523.94h2.68V232.44h129.78c.32,0,32.55.17,64.39,14.52,42.57,19.19,64.15,53.26,64.15,101.25s-21.06,81.67-62.61,101.05c-31.1,14.51-62.66,14.91-62.95,14.92l-79.19-.61v-18.61l79.93.61c.25,0,25.59-.43,50.57-12.57,23.15-11.25,50.76-35.09,50.76-84.8s-28.62-74.04-52.63-85.15c-25.9-11.98-52.16-12.11-52.42-12.11h-105.67v502.76h2.68V253.62h102.99c.26,0,26,.15,51.37,11.9,33.84,15.68,51,43.5,51,82.68s-16.54,66.47-49.17,82.35c-24.45,11.9-49.26,12.33-49.49,12.34l-79.93-.61v-18.61l80.68.61c.76-.01,18.8-.46,37.14-10.01,17-8.85,37.27-27.5,37.27-66.08s-21.5-57.92-39.53-66.61c-19.44-9.37-38.55-9.47-39.36-9.47h-78.89v481.59h2.68v-202.33l61.74.48,104.24,202.3,2.38-1.23-103.59-201.05,11.45.09c.17,0,5.06-.02,13.32-.64l106.35,202.83,2.37-1.24-105.82-201.82c6.41-.54,14.45-1.4,23.64-2.81l109.71,205.87,2.36-1.26-109.28-205.05c7.05-1.13,14.72-2.58,22.79-4.43l114.03,210.75,2.35-1.27-113.68-210.1c7.07-1.68,14.42-3.66,21.92-6.01l119.31,217.39,2.35-1.29-119.06-216.93c6.91-2.23,13.93-4.77,20.97-7.67l125.65,225.89,2.34-1.3-125.5-225.63c.56-.24,1.12-.47,1.67-.71,6.32-2.73,12.39-5.65,18.23-8.75ZM22.4,74.64l60.15-21.93,61.29,21.94v70.41H22.4v-70.41Z"/><path class="cls-3" d="M111.11,89.64v29.14h-55.87v-28.53l27.96-10.34,27.92,9.73ZM52.56,88.38v33.07h61.23v-33.72l-30.62-10.67-30.61,11.32Z"/><path class="cls-1" d="M266.02,261.74h76.21c.19,0,19.38.12,38.27,9.25,25.17,12.17,37.94,33.75,37.94,64.16s-12.03,51.27-35.75,63.66c-17.79,9.29-35.86,9.75-36.01,9.75l-80.67-.61v-146.21ZM478.25,504.76l133.16,236.39,2.33-1.31-133.14-236.36c24.75-13.51,45.07-30.42,60.56-50.48,24.5-31.72,36.92-71.37,36.92-117.85s-12.42-85.87-36.92-117.49c-19.59-25.29-46.89-45.59-81.15-60.32-58.21-25.05-117.2-25.34-117.79-25.34h-177.49V59.76l-63.97-22.96-62.82,22.9v74.96h64.68v605.98h2.68V134.67h236.92c.58,0,59.09.3,116.8,25.15,33.81,14.56,60.74,34.58,80.04,59.51,24.11,31.14,36.34,70.11,36.34,115.82s-12.23,84.94-36.34,116.18c-19.3,25-46.23,45.09-80.04,59.69-57.71,24.93-116.22,25.23-116.79,25.23l-76.22-.6v-18.61l76.95.6c.52,0,52.78-.32,104.34-22.84,30.35-13.26,54.54-31.49,71.9-54.2,21.71-28.4,32.71-63.88,32.71-105.45s-11.05-76.91-32.83-105.25c-17.42-22.66-41.7-40.84-72.15-54.04-51.75-22.43-104.19-22.69-104.71-22.69h-212.81v587.48h2.68V155.85h210.13c.52,0,52.48.27,103.72,22.5,30.01,13.02,53.92,30.93,71.05,53.22,21.4,27.85,32.25,62.7,32.25,103.58s-10.81,75.87-32.14,103.78c-17.07,22.34-40.89,40.3-70.8,53.38-51.06,22.32-102.83,22.65-103.33,22.65l-76.96-.6v-18.61l77.7.6c.45,0,45.98-.34,90.9-20.27,26.44-11.73,47.52-27.84,62.65-47.9,18.91-25.08,28.51-56.38,28.51-93.04s-9.67-67.96-28.74-93c-15.25-20.02-36.5-36.09-63.16-47.76-45.28-19.82-91.18-20.05-91.64-20.05h-186.03v566.3h2.68V177.03h183.35c.45,0,45.86.24,90.64,19.85,26.22,11.48,47.1,27.27,62.06,46.93,18.69,24.55,28.17,55.29,28.17,91.34s-9.4,66.8-27.94,91.39c-14.84,19.69-35.55,35.52-61.55,47.07-44.41,19.72-89.44,20.07-89.88,20.07l-77.7-.6v-18.61l78.44.6c.39,0,39.18-.37,77.45-17.7,35.44-16.05,77.69-50.28,77.69-122.23,0-31.84-8.29-59-24.65-80.75-13.08-17.39-31.3-31.34-54.16-41.47-38.82-17.2-78.17-17.4-78.56-17.4h-159.24v545.12h2.68V198.21h156.57c.39,0,39.17.2,77.48,17.17,22.44,9.94,40.31,23.61,53.11,40.63,16,21.27,24.11,47.89,24.11,79.14s-7.99,57.72-23.74,79c-12.61,17.03-30.21,30.74-52.3,40.76-37.75,17.12-76.05,17.49-76.42,17.5l-78.45-.6v-18.61l79.19.61c.32,0,32.38-.4,64.01-15.13,29.3-13.65,64.23-42.69,64.23-103.52s-35.74-90.17-65.72-103.68c-32.36-14.59-65.16-14.76-65.49-14.76h-132.46v523.94h2.68V219.38h129.78c.32,0,32.55.17,64.39,14.52,42.57,19.19,64.15,53.26,64.15,101.25s-21.06,81.67-62.61,101.05c-31.1,14.51-62.66,14.91-62.95,14.92l-79.19-.61v-18.61l79.93.61c.25,0,25.59-.43,50.57-12.57,23.15-11.25,50.76-35.09,50.76-84.8s-28.62-74.04-52.63-85.15c-25.9-11.98-52.16-12.11-52.42-12.11h-105.67v502.76h2.68V240.56h102.99c.26,0,26,.15,51.37,11.9,33.84,15.68,51,43.5,51,82.68s-16.54,66.47-49.17,82.35c-24.45,11.9-49.26,12.33-49.49,12.34l-79.93-.61v-18.61l80.68.61c.76-.01,18.8-.46,37.14-10.01,17-8.85,37.27-27.5,37.27-66.08s-21.5-57.92-39.53-66.61c-19.44-9.37-38.55-9.47-39.36-9.47h-78.89v481.59h2.68v-202.33l61.74.48,104.24,202.3,2.38-1.23-103.59-201.05,11.45.09c.17,0,5.06-.02,13.32-.64l106.35,202.83,2.37-1.24-105.82-201.82c6.41-.54,14.45-1.4,23.64-2.81l109.71,205.87,2.36-1.26-109.28-205.05c7.05-1.13,14.72-2.58,22.79-4.43l114.03,210.75,2.35-1.27-113.68-210.1c7.07-1.68,14.42-3.66,21.92-6.01l119.31,217.39,2.35-1.29-119.06-216.93c6.91-2.23,13.93-4.77,20.97-7.67l125.65,225.89,2.34-1.3-125.5-225.63c.56-.24,1.12-.47,1.67-.71,6.32-2.73,12.39-5.65,18.23-8.75ZM40.63,61.58l60.15-21.93,61.29,21.94v70.41H40.63V61.58Z"/><path class="cls-1" d="M129.33,76.58v29.14h-55.87v-28.53l27.96-10.34,27.92,9.73ZM70.78,75.32v33.07h61.23v-33.72l-30.62-10.67-30.61,11.32Z"/><path class="cls-4" d="M284.24,248.68h76.21c.19,0,19.38.12,38.27,9.25,25.17,12.17,37.94,33.75,37.94,64.16s-12.03,51.27-35.75,63.66c-17.79,9.29-35.86,9.75-36.01,9.75l-80.67-.61v-146.21ZM496.48,491.7l133.16,236.39,2.33-1.31-133.14-236.36c24.75-13.51,45.07-30.42,60.56-50.48,24.5-31.72,36.92-71.37,36.92-117.85s-12.42-85.87-36.92-117.49c-19.59-25.29-46.89-45.59-81.15-60.32-58.21-25.05-117.2-25.34-117.79-25.34h-177.49V46.7l-63.97-22.96-62.82,22.9v74.96h64.68v605.98h2.68V121.61h236.92c.58,0,59.09.3,116.8,25.15,33.81,14.56,60.74,34.58,80.04,59.51,24.11,31.14,36.34,70.11,36.34,115.82s-12.23,84.94-36.34,116.18c-19.3,25-46.23,45.09-80.04,59.69-57.71,24.93-116.22,25.23-116.79,25.23l-76.22-.6v-18.61l76.95.6c.52,0,52.78-.32,104.34-22.84,30.35-13.26,54.54-31.49,71.9-54.2,21.71-28.4,32.71-63.88,32.71-105.45s-11.05-76.91-32.83-105.25c-17.42-22.66-41.7-40.84-72.15-54.04-51.75-22.43-104.19-22.69-104.71-22.69h-212.81v587.48h2.68V142.79h210.13c.52,0,52.48.27,103.72,22.5,30.01,13.02,53.92,30.93,71.05,53.22,21.4,27.85,32.25,62.7,32.25,103.58s-10.81,75.87-32.14,103.78c-17.07,22.34-40.89,40.3-70.8,53.38-51.06,22.32-102.83,22.65-103.33,22.65l-76.96-.6v-18.61l77.7.6c.45,0,45.98-.34,90.9-20.27,26.44-11.73,47.52-27.84,62.65-47.9,18.91-25.08,28.51-56.38,28.51-93.04s-9.67-67.96-28.74-93c-15.25-20.02-36.5-36.09-63.16-47.76-45.28-19.82-91.18-20.05-91.64-20.05h-186.03v566.3h2.68V163.97h183.35c.45,0,45.86.24,90.64,19.85,26.22,11.48,47.1,27.27,62.06,46.93,18.69,24.55,28.17,55.29,28.17,91.34s-9.4,66.8-27.94,91.39c-14.84,19.69-35.55,35.52-61.55,47.07-44.41,19.72-89.44,20.07-89.88,20.07l-77.7-.6v-18.61l78.44.6c.39,0,39.18-.37,77.45-17.7,35.44-16.05,77.69-50.28,77.69-122.23,0-31.84-8.29-59-24.65-80.75-13.08-17.39-31.3-31.34-54.16-41.47-38.82-17.2-78.17-17.4-78.56-17.4h-159.24v545.12h2.68V185.15h156.57c.39,0,39.17.2,77.48,17.17,22.44,9.94,40.31,23.61,53.11,40.63,16,21.27,24.11,47.89,24.11,79.14s-7.99,57.72-23.74,79c-12.61,17.03-30.21,30.74-52.3,40.76-37.75,17.12-76.05,17.49-76.42,17.5l-78.45-.6v-18.61l79.19.61c.32,0,32.38-.4,64.01-15.13,29.3-13.65,64.23-42.69,64.23-103.52s-35.74-90.17-65.72-103.68c-32.36-14.59-65.16-14.76-65.49-14.76h-132.46v523.94h2.68V206.32h129.78c.32,0,32.55.17,64.39,14.52,42.57,19.19,64.15,53.26,64.15,101.25s-21.06,81.67-62.61,101.05c-31.1,14.51-62.66,14.91-62.95,14.92l-79.19-.61v-18.61l79.93.61c.25,0,25.59-.43,50.57-12.57,23.15-11.25,50.76-35.09,50.76-84.8s-28.62-74.04-52.63-85.15c-25.9-11.98-52.16-12.11-52.42-12.11h-105.67v502.76h2.68V227.5h102.99c.26,0,26,.15,51.37,11.9,33.84,15.68,51,43.5,51,82.68s-16.54,66.47-49.17,82.35c-24.45,11.9-49.26,12.33-49.49,12.34l-79.93-.61v-18.61l80.68.61c.76-.01,18.8-.46,37.14-10.01,17-8.85,37.27-27.5,37.27-66.08s-21.5-57.92-39.53-66.61c-19.44-9.37-38.55-9.47-39.36-9.47h-78.89v481.59h2.68v-202.33l61.74.48,104.24,202.3,2.38-1.23-103.59-201.05,11.45.09c.17,0,5.06-.02,13.32-.64l106.35,202.83,2.37-1.24-105.82-201.82c6.41-.54,14.45-1.4,23.64-2.81l109.71,205.87,2.36-1.26-109.28-205.05c7.05-1.13,14.72-2.58,22.79-4.43l114.03,210.75,2.35-1.27-113.68-210.1c7.07-1.68,14.42-3.66,21.92-6.01l119.31,217.39,2.35-1.29-119.06-216.93c6.91-2.23,13.93-4.77,20.97-7.67l125.65,225.89,2.34-1.3-125.5-225.63c.56-.24,1.12-.47,1.67-.71,6.32-2.73,12.39-5.65,18.23-8.75ZM58.85,48.52l60.15-21.93,61.29,21.94v70.41H58.85V48.52Z"/><path class="cls-4" d="M147.56,63.52v29.14h-55.87v-28.53l27.96-10.34,27.92,9.73ZM89.01,62.27v33.07h61.23v-33.72l-30.62-10.67-30.61,11.32Z"/><path class="cls-6" d="M302.47,235.62h76.21c.19,0,19.38.12,38.27,9.25,25.17,12.17,37.94,33.75,37.94,64.16s-12.03,51.27-35.75,63.66c-17.79,9.29-35.86,9.75-36.01,9.75l-80.67-.61v-146.21ZM514.7,478.64l133.16,236.39,2.33-1.31-133.14-236.36c24.75-13.51,45.07-30.42,60.56-50.48,24.5-31.72,36.92-71.37,36.92-117.85s-12.42-85.87-36.92-117.49c-19.59-25.29-46.89-45.59-81.15-60.32-58.21-25.05-117.2-25.34-117.79-25.34h-177.49V33.64l-63.97-22.96-62.82,22.9v74.96h64.68v605.98h2.68V108.55h236.92c.58,0,59.09.3,116.8,25.15,33.81,14.56,60.74,34.58,80.04,59.51,24.11,31.14,36.34,70.11,36.34,115.82s-12.23,84.94-36.34,116.18c-19.3,25-46.23,45.09-80.04,59.69-57.71,24.93-116.22,25.23-116.79,25.23l-76.22-.6v-18.61l76.95.6c.52,0,52.78-.32,104.34-22.84,30.35-13.26,54.54-31.49,71.9-54.2,21.71-28.4,32.71-63.88,32.71-105.45s-11.05-76.91-32.83-105.25c-17.42-22.66-41.7-40.84-72.15-54.04-51.75-22.43-104.19-22.69-104.71-22.69h-212.81v587.48h2.68V129.73h210.13c.52,0,52.48.27,103.72,22.5,30.01,13.02,53.92,30.93,71.05,53.22,21.4,27.85,32.25,62.7,32.25,103.58s-10.81,75.87-32.14,103.78c-17.07,22.34-40.89,40.3-70.8,53.38-51.06,22.32-102.83,22.65-103.33,22.65l-76.96-.6v-18.61l77.7.6c.45,0,45.98-.34,90.9-20.27,26.44-11.73,47.52-27.84,62.65-47.9,18.91-25.08,28.51-56.38,28.51-93.04s-9.67-67.96-28.74-93c-15.25-20.02-36.5-36.09-63.16-47.76-45.28-19.82-91.18-20.05-91.64-20.05h-186.03v566.3h2.68V150.91h183.35c.45,0,45.86.24,90.64,19.85,26.22,11.48,47.1,27.27,62.06,46.93,18.69,24.55,28.17,55.29,28.17,91.34s-9.4,66.8-27.94,91.39c-14.84,19.69-35.55,35.52-61.55,47.07-44.41,19.72-89.44,20.07-89.88,20.07l-77.7-.6v-18.61l78.44.6c.39,0,39.18-.37,77.45-17.7,35.44-16.05,77.69-50.28,77.69-122.23,0-31.84-8.29-59-24.65-80.75-13.08-17.39-31.3-31.34-54.16-41.47-38.82-17.2-78.17-17.4-78.56-17.4h-159.24v545.12h2.68V172.09h156.57c.39,0,39.17.2,77.48,17.17,22.44,9.94,40.31,23.61,53.11,40.63,16,21.27,24.11,47.89,24.11,79.14s-7.99,57.72-23.74,79c-12.61,17.03-30.21,30.74-52.3,40.76-37.75,17.12-76.05,17.49-76.42,17.5l-78.45-.6v-18.61l79.19.61c.32,0,32.38-.4,64.01-15.13,29.3-13.65,64.23-42.69,64.23-103.52s-35.74-90.17-65.72-103.68c-32.36-14.59-65.16-14.76-65.49-14.76h-132.46v523.94h2.68V193.27h129.78c.32,0,32.55.17,64.39,14.52,42.57,19.19,64.15,53.26,64.15,101.25s-21.06,81.67-62.61,101.05c-31.1,14.51-62.66,14.91-62.95,14.92l-79.19-.61v-18.61l79.93.61c.25,0,25.59-.43,50.57-12.57,23.15-11.25,50.76-35.09,50.76-84.8s-28.62-74.04-52.63-85.15c-25.9-11.98-52.16-12.11-52.42-12.11h-105.67v502.76h2.68V214.44h102.99c.26,0,26,.15,51.37,11.9,33.84,15.68,51,43.5,51,82.68s-16.54,66.47-49.17,82.35c-24.45,11.9-49.26,12.33-49.49,12.34l-79.93-.61v-18.61l80.68.61c.76-.01,18.8-.46,37.14-10.01,17-8.85,37.27-27.5,37.27-66.08s-21.5-57.92-39.53-66.61c-19.44-9.37-38.55-9.47-39.36-9.47h-78.89v481.59h2.68v-202.33l61.74.48,104.24,202.3,2.38-1.23-103.59-201.05,11.45.09c.17,0,5.06-.02,13.32-.64l106.35,202.83,2.37-1.24-105.82-201.82c6.41-.54,14.45-1.4,23.64-2.81l109.71,205.87,2.36-1.26-109.28-205.05c7.05-1.13,14.72-2.58,22.79-4.43l114.03,210.75,2.35-1.27-113.68-210.1c7.07-1.68,14.42-3.66,21.92-6.01l119.31,217.39,2.35-1.29-119.06-216.93c6.91-2.23,13.93-4.77,20.97-7.67l125.65,225.89,2.34-1.3-125.5-225.63c.56-.24,1.12-.47,1.67-.71,6.32-2.73,12.39-5.65,18.23-8.75ZM77.08,35.46l60.15-21.93,61.29,21.94v70.41h-121.44V35.46Z"/><path class="cls-6" d="M165.79,50.46v29.14h-55.87v-28.53l27.96-10.34,27.92,9.73ZM107.23,49.21v33.07h61.23v-33.72l-30.62-10.67-30.61,11.32Z"/><path class="cls-2" d="M526.26,470.08l133.16,236.39,2.33-1.31-133.14-236.36c24.75-13.51,45.07-30.42,60.56-50.48,24.5-31.72,36.92-71.37,36.92-117.85s-12.42-85.87-36.92-117.49c-19.59-25.29-46.89-45.59-81.15-60.32-58.21-25.05-117.2-25.34-117.79-25.34h-177.49V25.08L148.78,2.13l-62.82,22.9v74.96h64.68v605.98h2.68V100h236.92c.58,0,59.09.3,116.8,25.15,33.81,14.56,60.74,34.58,80.04,59.51,24.11,31.14,36.34,70.11,36.34,115.82s-12.23,84.94-36.34,116.18c-19.3,25-46.23,45.09-80.04,59.69-57.71,24.93-116.22,25.23-116.79,25.23l-76.22-.6v-18.61l76.95.6c.52,0,52.78-.32,104.34-22.84,30.35-13.26,54.54-31.49,71.9-54.2,21.71-28.4,32.71-63.88,32.71-105.45s-11.05-76.91-32.83-105.25c-17.42-22.66-41.7-40.84-72.15-54.04-51.75-22.43-104.19-22.69-104.71-22.69h-212.81v587.48h2.68V121.17h210.13c.52,0,52.48.27,103.72,22.5,30.01,13.02,53.92,30.93,71.05,53.22,21.4,27.85,32.25,62.7,32.25,103.58s-10.81,75.87-32.14,103.78c-17.07,22.34-40.89,40.3-70.8,53.38-51.06,22.32-102.83,22.65-103.33,22.65l-76.96-.6v-18.61l77.7.6c.45,0,45.98-.34,90.9-20.27,26.44-11.73,47.52-27.84,62.65-47.9,18.91-25.08,28.51-56.38,28.51-93.04s-9.67-67.96-28.74-93c-15.25-20.02-36.5-36.09-63.16-47.76-45.28-19.82-91.18-20.05-91.64-20.05h-186.03v566.3h2.68V142.35h183.35c.45,0,45.86.24,90.64,19.85,26.22,11.48,47.1,27.27,62.06,46.93,18.69,24.55,28.17,55.29,28.17,91.34s-9.4,66.8-27.94,91.39c-14.84,19.69-35.55,35.52-61.55,47.07-44.41,19.72-89.44,20.07-89.88,20.07l-77.7-.6v-18.61l78.44.6c.39,0,39.18-.37,77.45-17.7,35.44-16.05,77.69-50.28,77.69-122.23,0-31.84-8.29-59-24.65-80.75-13.08-17.39-31.3-31.34-54.16-41.47-38.82-17.2-78.17-17.4-78.56-17.4h-159.24v545.12h2.68V163.53h156.57c.39,0,39.17.2,77.48,17.17,22.44,9.94,40.31,23.61,53.11,40.63,16,21.27,24.11,47.89,24.11,79.14s-7.99,57.72-23.74,79c-12.61,17.03-30.21,30.74-52.3,40.76-37.75,17.12-76.05,17.49-76.42,17.5l-78.45-.6v-18.61l79.19.61c.32,0,32.38-.4,64.01-15.13,29.3-13.65,64.23-42.69,64.23-103.52s-35.74-90.17-65.72-103.68c-32.36-14.59-65.16-14.76-65.49-14.76h-132.46v523.94h2.68V184.71h129.78c.32,0,32.55.17,64.39,14.52,42.57,19.19,64.15,53.26,64.15,101.25s-21.06,81.67-62.61,101.05c-31.1,14.51-62.66,14.91-62.95,14.92l-79.19-.61v-18.61l79.93.61c.25,0,25.59-.43,50.57-12.57,23.15-11.25,50.76-35.09,50.76-84.8s-28.62-74.04-52.63-85.15c-25.9-11.98-52.16-12.11-52.42-12.11h-105.67v502.76h2.68V205.89h102.99c.26,0,26,.15,51.37,11.9,33.84,15.68,51,43.5,51,82.68s-16.54,66.47-49.17,82.35c-24.45,11.9-49.26,12.33-49.49,12.34l-79.93-.61v-18.61l80.68.61c.76-.01,18.8-.46,37.14-10.01,17-8.85,37.27-27.5,37.27-66.08s-21.5-57.92-39.53-66.61c-19.44-9.37-38.55-9.47-39.36-9.47h-78.89v481.59h2.68v-202.33l61.74.48,104.24,202.3,2.38-1.23-103.59-201.05,11.45.09c.17,0,5.06-.02,13.32-.64l106.35,202.83,2.37-1.24-105.82-201.82c6.41-.54,14.45-1.4,23.64-2.81l109.71,205.87,2.36-1.26-109.28-205.05c7.05-1.13,14.72-2.58,22.79-4.43l114.03,210.75,2.35-1.27-113.68-210.1c7.07-1.68,14.42-3.66,21.92-6.01l119.31,217.39,2.35-1.29-119.06-216.93c6.91-2.23,13.93-4.77,20.97-7.67l125.65,225.89,2.34-1.3-125.5-225.63c.56-.24,1.12-.47,1.67-.71,6.32-2.73,12.39-5.65,18.23-8.75ZM88.64,26.9l60.15-21.93,61.29,21.94v70.41h-121.44V26.9ZM314.03,227.07h76.21c.19,0,19.38.12,38.27,9.25,25.17,12.17,37.94,33.75,37.94,64.16s-12.03,51.27-35.75,63.66c-17.79,9.29-35.86,9.75-36.01,9.75l-80.67-.61v-146.21Z"/><path class="cls-2" d="M118.8,40.65v33.07h61.23v-33.72l-30.62-10.67-30.61,11.32ZM177.35,41.9v29.14h-55.87v-28.53l27.96-10.34,27.92,9.73Z"/></g></svg>